<svg width="261" height="53" viewBox="0 0 261 53" fill="none" xmlns="http://www.w3.org/2000/svg">
<rect width="158" height="53" rx="4" fill="#066F14" fill-opacity="0.7"/>
<path d="M38.096 32.192C36.9973 32.192 36.048 31.952 35.248 31.472C34.4587 30.9813 33.8453 30.304 33.408 29.44C32.9707 28.5653 32.752 27.552 32.752 26.4C32.752 25.2587 32.9707 24.256 33.408 23.392C33.8453 22.5173 34.4587 21.8347 35.248 21.344C36.048 20.8533 36.9973 20.608 38.096 20.608C39.376 20.608 40.416 20.9173 41.216 21.536C42.0267 22.144 42.544 22.9973 42.768 24.096H41.28C41.1093 23.4027 40.7573 22.848 40.224 22.432C39.7013 22.0053 38.992 21.792 38.096 21.792C37.296 21.792 36.5973 21.9787 36 22.352C35.4027 22.7147 34.9387 23.2427 34.608 23.936C34.288 24.6187 34.128 25.44 34.128 26.4C34.128 27.36 34.288 28.1867 34.608 28.88C34.9387 29.5627 35.4027 30.0907 36 30.464C36.5973 30.8267 37.296 31.008 38.096 31.008C38.992 31.008 39.7013 30.8053 40.224 30.4C40.7573 29.984 41.1093 29.4347 41.28 28.752H42.768C42.544 29.8293 42.0267 30.672 41.216 31.28C40.416 31.888 39.376 32.192 38.096 32.192ZM47.2596 32.192C46.5983 32.192 46.049 32.08 45.6116 31.856C45.1743 31.632 44.849 31.3333 44.6356 30.96C44.4223 30.5867 44.3156 30.1813 44.3156 29.744C44.3156 28.9333 44.625 28.3093 45.2436 27.872C45.8623 27.4347 46.705 27.216 47.7716 27.216H49.9156V27.12C49.9156 26.4267 49.7343 25.904 49.3716 25.552C49.009 25.1893 48.5236 25.008 47.9156 25.008C47.393 25.008 46.9396 25.1413 46.5556 25.408C46.1823 25.664 45.9476 26.0427 45.8516 26.544H44.4756C44.529 25.968 44.721 25.4827 45.0516 25.088C45.393 24.6933 45.8143 24.3947 46.3156 24.192C46.817 23.9787 47.3503 23.872 47.9156 23.872C49.025 23.872 49.857 24.1707 50.4116 24.768C50.977 25.3547 51.2596 26.1387 51.2596 27.12V32H50.0596L49.9796 30.576C49.7556 31.024 49.425 31.408 48.9876 31.728C48.561 32.0373 47.985 32.192 47.2596 32.192ZM47.4676 31.056C47.9796 31.056 48.417 30.9227 48.7796 30.656C49.153 30.3893 49.4356 30.0427 49.6276 29.616C49.8196 29.1893 49.9156 28.7413 49.9156 28.272V28.256H47.8836C47.0943 28.256 46.5343 28.3947 46.2036 28.672C45.8836 28.9387 45.7236 29.2747 45.7236 29.68C45.7236 30.096 45.873 30.432 46.1716 30.688C46.481 30.9333 46.913 31.056 47.4676 31.056ZM56.9239 32.192C56.1665 32.192 55.4839 32.0213 54.8759 31.68C54.2785 31.328 53.8039 30.8427 53.4519 30.224C53.1105 29.5947 52.9399 28.864 52.9399 28.032C52.9399 27.2 53.1105 26.4747 53.4519 25.856C53.8039 25.2267 54.2785 24.7413 54.8759 24.4C55.4839 24.048 56.1665 23.872 56.9239 23.872C57.8625 23.872 58.6519 24.1173 59.2919 24.608C59.9425 25.0987 60.3532 25.7547 60.5239 26.576H59.1479C59.0412 26.0853 58.7799 25.7067 58.3639 25.44C57.9479 25.1627 57.4625 25.024 56.9079 25.024C56.4599 25.024 56.0385 25.136 55.6439 25.36C55.2492 25.584 54.9292 25.92 54.6839 26.368C54.4385 26.816 54.3159 27.3707 54.3159 28.032C54.3159 28.6933 54.4385 29.248 54.6839 29.696C54.9292 30.144 55.2492 30.4853 55.6439 30.72C56.0385 30.944 56.4599 31.056 56.9079 31.056C57.4625 31.056 57.9479 30.9227 58.3639 30.656C58.7799 30.3787 59.0412 29.9893 59.1479 29.488H60.5239C60.3639 30.288 59.9585 30.9387 59.3079 31.44C58.6572 31.9413 57.8625 32.192 56.9239 32.192ZM65.3181 32C64.5928 32 64.0221 31.824 63.6061 31.472C63.1901 31.12 62.9821 30.4853 62.9821 29.568V25.2H61.6061V24.064H62.9821L63.1581 22.16H64.3261V24.064H66.6621V25.2H64.3261V29.568C64.3261 30.0693 64.4275 30.4107 64.6301 30.592C64.8328 30.7627 65.1901 30.848 65.7021 30.848H66.5341V32H65.3181ZM71.2656 32.192C70.327 32.192 69.5803 31.9093 69.0256 31.344C68.471 30.768 68.1936 29.888 68.1936 28.704V24.064H69.5376V28.56C69.5376 30.2133 70.215 31.04 71.5696 31.04C72.263 31.04 72.8336 30.7947 73.2816 30.304C73.7403 29.8027 73.9696 29.0933 73.9696 28.176V24.064H75.3136V32H74.0976L74.0016 30.576C73.7563 31.0773 73.3883 31.472 72.8976 31.76C72.4176 32.048 71.8736 32.192 71.2656 32.192ZM80.5659 32.192C79.6165 32.192 78.8272 31.952 78.1979 31.472C77.5685 30.992 77.2005 30.3413 77.0939 29.52H78.4699C78.5552 29.936 78.7739 30.2987 79.1259 30.608C79.4885 30.9067 79.9739 31.056 80.5819 31.056C81.1472 31.056 81.5632 30.9387 81.8299 30.704C82.0965 30.4587 82.2299 30.1707 82.2299 29.84C82.2299 29.36 82.0539 29.04 81.7019 28.88C81.3605 28.72 80.8752 28.576 80.2459 28.448C79.8192 28.3627 79.3925 28.24 78.9659 28.08C78.5392 27.92 78.1819 27.696 77.8939 27.408C77.6059 27.1093 77.4619 26.72 77.4619 26.24C77.4619 25.5467 77.7179 24.9813 78.2299 24.544C78.7525 24.096 79.4565 23.872 80.3419 23.872C81.1845 23.872 81.8725 24.0853 82.4059 24.512C82.9499 24.928 83.2645 25.5253 83.3499 26.304H82.0219C81.9685 25.8987 81.7925 25.584 81.4939 25.36C81.2059 25.1253 80.8165 25.008 80.3259 25.008C79.8459 25.008 79.4725 25.1093 79.2059 25.312C78.9499 25.5147 78.8219 25.7813 78.8219 26.112C78.8219 26.432 78.9872 26.6827 79.3179 26.864C79.6592 27.0453 80.1179 27.2 80.6939 27.328C81.1845 27.4347 81.6485 27.568 82.0859 27.728C82.5339 27.8773 82.8965 28.1067 83.1739 28.416C83.4619 28.7147 83.6059 29.152 83.6059 29.728C83.6165 30.4427 83.3445 31.0347 82.7899 31.504C82.2459 31.9627 81.5045 32.192 80.5659 32.192ZM92.8003 32.192C91.8509 32.192 91.0616 31.952 90.4323 31.472C89.8029 30.992 89.4349 30.3413 89.3283 29.52H90.7043C90.7896 29.936 91.0083 30.2987 91.3603 30.608C91.7229 30.9067 92.2083 31.056 92.8163 31.056C93.3816 31.056 93.7976 30.9387 94.0643 30.704C94.3309 30.4587 94.4643 30.1707 94.4643 29.84C94.4643 29.36 94.2883 29.04 93.9363 28.88C93.5949 28.72 93.1096 28.576 92.4803 28.448C92.0536 28.3627 91.6269 28.24 91.2003 28.08C90.7736 27.92 90.4163 27.696 90.1283 27.408C89.8403 27.1093 89.6963 26.72 89.6963 26.24C89.6963 25.5467 89.9523 24.9813 90.4643 24.544C90.9869 24.096 91.6909 23.872 92.5763 23.872C93.4189 23.872 94.1069 24.0853 94.6403 24.512C95.1843 24.928 95.4989 25.5253 95.5843 26.304H94.2563C94.2029 25.8987 94.0269 25.584 93.7283 25.36C93.4403 25.1253 93.0509 25.008 92.5603 25.008C92.0803 25.008 91.7069 25.1093 91.4403 25.312C91.1843 25.5147 91.0563 25.7813 91.0563 26.112C91.0563 26.432 91.2216 26.6827 91.5523 26.864C91.8936 27.0453 92.3523 27.2 92.9283 27.328C93.4189 27.4347 93.8829 27.568 94.3203 27.728C94.7683 27.8773 95.1309 28.1067 95.4083 28.416C95.6963 28.7147 95.8403 29.152 95.8403 29.728C95.8509 30.4427 95.5789 31.0347 95.0243 31.504C94.4803 31.9627 93.7389 32.192 92.8003 32.192ZM100.537 32C99.8115 32 99.2409 31.824 98.8249 31.472C98.4089 31.12 98.2009 30.4853 98.2009 29.568V25.2H96.8249V24.064H98.2009L98.3769 22.16H99.5449V24.064H101.881V25.2H99.5449V29.568C99.5449 30.0693 99.6462 30.4107 99.8489 30.592C100.052 30.7627 100.409 30.848 100.921 30.848H101.753V32H100.537ZM106.938 32.192C106.18 32.192 105.508 32.0213 104.922 31.68C104.335 31.328 103.871 30.8427 103.53 30.224C103.199 29.6053 103.034 28.8747 103.034 28.032C103.034 27.2 103.199 26.4747 103.53 25.856C103.86 25.2267 104.319 24.7413 104.906 24.4C105.503 24.048 106.191 23.872 106.97 23.872C107.738 23.872 108.399 24.048 108.954 24.4C109.519 24.7413 109.951 25.1947 110.25 25.76C110.548 26.3253 110.698 26.9333 110.698 27.584C110.698 27.7013 110.692 27.8187 110.682 27.936C110.682 28.0533 110.682 28.1867 110.682 28.336H104.362C104.394 28.944 104.532 29.4507 104.778 29.856C105.034 30.2507 105.348 30.5493 105.722 30.752C106.106 30.9547 106.511 31.056 106.938 31.056C107.492 31.056 107.956 30.928 108.33 30.672C108.703 30.416 108.975 30.0693 109.146 29.632H110.474C110.26 30.368 109.85 30.9813 109.242 31.472C108.644 31.952 107.876 32.192 106.938 32.192ZM106.938 25.008C106.298 25.008 105.727 25.2053 105.226 25.6C104.735 25.984 104.452 26.5493 104.378 27.296H109.37C109.338 26.5813 109.092 26.0213 108.634 25.616C108.175 25.2107 107.61 25.008 106.938 25.008ZM112.479 32V24.064H113.695L113.791 25.216C114.047 24.7893 114.388 24.4587 114.815 24.224C115.242 23.9893 115.722 23.872 116.255 23.872C116.884 23.872 117.423 24 117.871 24.256C118.33 24.512 118.682 24.9013 118.927 25.424C119.204 24.944 119.583 24.5653 120.063 24.288C120.554 24.0107 121.082 23.872 121.647 23.872C122.596 23.872 123.354 24.16 123.919 24.736C124.484 25.3013 124.767 26.176 124.767 27.36V32H123.439V27.504C123.439 26.6827 123.274 26.064 122.943 25.648C122.612 25.232 122.138 25.024 121.519 25.024C120.879 25.024 120.346 25.2747 119.919 25.776C119.503 26.2667 119.295 26.9707 119.295 27.888V32H117.951V27.504C117.951 26.6827 117.786 26.064 117.455 25.648C117.124 25.232 116.65 25.024 116.031 25.024C115.402 25.024 114.874 25.2747 114.447 25.776C114.031 26.2667 113.823 26.9707 113.823 27.888V32H112.479Z" fill="white"/>
<rect x="158" y="24" width="95" height="4" fill="#519A5A"/>
<circle cx="253" cy="26" r="8" fill="white" fill-opacity="0.54"/>
<circle cx="253" cy="26" r="3" fill="#F4C300"/>
</svg>
