<svg width="287" height="53" viewBox="0 0 287 53" fill="none" xmlns="http://www.w3.org/2000/svg">
<rect x="123" width="164" height="53" rx="4" fill="#066F14" fill-opacity="0.7"/>
<path d="M161.096 32.192C159.997 32.192 159.048 31.952 158.248 31.472C157.459 30.9813 156.845 30.304 156.408 29.44C155.971 28.5653 155.752 27.552 155.752 26.4C155.752 25.2587 155.971 24.256 156.408 23.392C156.845 22.5173 157.459 21.8347 158.248 21.344C159.048 20.8533 159.997 20.608 161.096 20.608C162.376 20.608 163.416 20.9173 164.216 21.536C165.027 22.144 165.544 22.9973 165.768 24.096H164.28C164.109 23.4027 163.757 22.848 163.224 22.432C162.701 22.0053 161.992 21.792 161.096 21.792C160.296 21.792 159.597 21.9787 159 22.352C158.403 22.7147 157.939 23.2427 157.608 23.936C157.288 24.6187 157.128 25.44 157.128 26.4C157.128 27.36 157.288 28.1867 157.608 28.88C157.939 29.5627 158.403 30.0907 159 30.464C159.597 30.8267 160.296 31.008 161.096 31.008C161.992 31.008 162.701 30.8053 163.224 30.4C163.757 29.984 164.109 29.4347 164.28 28.752H165.768C165.544 29.8293 165.027 30.672 164.216 31.28C163.416 31.888 162.376 32.192 161.096 32.192ZM170.26 32.192C169.598 32.192 169.049 32.08 168.612 31.856C168.174 31.632 167.849 31.3333 167.636 30.96C167.422 30.5867 167.316 30.1813 167.316 29.744C167.316 28.9333 167.625 28.3093 168.244 27.872C168.862 27.4347 169.705 27.216 170.772 27.216H172.916V27.12C172.916 26.4267 172.734 25.904 172.372 25.552C172.009 25.1893 171.524 25.008 170.916 25.008C170.393 25.008 169.94 25.1413 169.556 25.408C169.182 25.664 168.948 26.0427 168.852 26.544H167.476C167.529 25.968 167.721 25.4827 168.052 25.088C168.393 24.6933 168.814 24.3947 169.316 24.192C169.817 23.9787 170.35 23.872 170.916 23.872C172.025 23.872 172.857 24.1707 173.412 24.768C173.977 25.3547 174.26 26.1387 174.26 27.12V32H173.06L172.98 30.576C172.756 31.024 172.425 31.408 171.988 31.728C171.561 32.0373 170.985 32.192 170.26 32.192ZM170.468 31.056C170.98 31.056 171.417 30.9227 171.78 30.656C172.153 30.3893 172.436 30.0427 172.628 29.616C172.82 29.1893 172.916 28.7413 172.916 28.272V28.256H170.884C170.094 28.256 169.534 28.3947 169.204 28.672C168.884 28.9387 168.724 29.2747 168.724 29.68C168.724 30.096 168.873 30.432 169.172 30.688C169.481 30.9333 169.913 31.056 170.468 31.056ZM179.924 32.192C179.167 32.192 178.484 32.0213 177.876 31.68C177.279 31.328 176.804 30.8427 176.452 30.224C176.111 29.5947 175.94 28.864 175.94 28.032C175.94 27.2 176.111 26.4747 176.452 25.856C176.804 25.2267 177.279 24.7413 177.876 24.4C178.484 24.048 179.167 23.872 179.924 23.872C180.863 23.872 181.652 24.1173 182.292 24.608C182.943 25.0987 183.353 25.7547 183.524 26.576H182.148C182.041 26.0853 181.78 25.7067 181.364 25.44C180.948 25.1627 180.463 25.024 179.908 25.024C179.46 25.024 179.039 25.136 178.644 25.36C178.249 25.584 177.929 25.92 177.684 26.368C177.439 26.816 177.316 27.3707 177.316 28.032C177.316 28.6933 177.439 29.248 177.684 29.696C177.929 30.144 178.249 30.4853 178.644 30.72C179.039 30.944 179.46 31.056 179.908 31.056C180.463 31.056 180.948 30.9227 181.364 30.656C181.78 30.3787 182.041 29.9893 182.148 29.488H183.524C183.364 30.288 182.959 30.9387 182.308 31.44C181.657 31.9413 180.863 32.192 179.924 32.192ZM188.318 32C187.593 32 187.022 31.824 186.606 31.472C186.19 31.12 185.982 30.4853 185.982 29.568V25.2H184.606V24.064H185.982L186.158 22.16H187.326V24.064H189.662V25.2H187.326V29.568C187.326 30.0693 187.427 30.4107 187.63 30.592C187.833 30.7627 188.19 30.848 188.702 30.848H189.534V32H188.318ZM194.266 32.192C193.327 32.192 192.58 31.9093 192.026 31.344C191.471 30.768 191.194 29.888 191.194 28.704V24.064H192.538V28.56C192.538 30.2133 193.215 31.04 194.57 31.04C195.263 31.04 195.834 30.7947 196.282 30.304C196.74 29.8027 196.97 29.0933 196.97 28.176V24.064H198.314V32H197.098L197.002 30.576C196.756 31.0773 196.388 31.472 195.898 31.76C195.418 32.048 194.874 32.192 194.266 32.192ZM203.566 32.192C202.617 32.192 201.827 31.952 201.198 31.472C200.569 30.992 200.201 30.3413 200.094 29.52H201.47C201.555 29.936 201.774 30.2987 202.126 30.608C202.489 30.9067 202.974 31.056 203.582 31.056C204.147 31.056 204.563 30.9387 204.83 30.704C205.097 30.4587 205.23 30.1707 205.23 29.84C205.23 29.36 205.054 29.04 204.702 28.88C204.361 28.72 203.875 28.576 203.246 28.448C202.819 28.3627 202.393 28.24 201.966 28.08C201.539 27.92 201.182 27.696 200.894 27.408C200.606 27.1093 200.462 26.72 200.462 26.24C200.462 25.5467 200.718 24.9813 201.23 24.544C201.753 24.096 202.457 23.872 203.342 23.872C204.185 23.872 204.873 24.0853 205.406 24.512C205.95 24.928 206.265 25.5253 206.35 26.304H205.022C204.969 25.8987 204.793 25.584 204.494 25.36C204.206 25.1253 203.817 25.008 203.326 25.008C202.846 25.008 202.473 25.1093 202.206 25.312C201.95 25.5147 201.822 25.7813 201.822 26.112C201.822 26.432 201.987 26.6827 202.318 26.864C202.659 27.0453 203.118 27.2 203.694 27.328C204.185 27.4347 204.649 27.568 205.086 27.728C205.534 27.8773 205.897 28.1067 206.174 28.416C206.462 28.7147 206.606 29.152 206.606 29.728C206.617 30.4427 206.345 31.0347 205.79 31.504C205.246 31.9627 204.505 32.192 203.566 32.192ZM215.464 32V21.904H212.12V20.8H220.152V21.904H216.808V32H215.464ZM221.713 32V20.48H223.057V25.424C223.324 24.9333 223.703 24.5547 224.193 24.288C224.684 24.0107 225.217 23.872 225.793 23.872C226.711 23.872 227.447 24.16 228.001 24.736C228.556 25.3013 228.833 26.176 228.833 27.36V32H227.505V27.504C227.505 25.8507 226.839 25.024 225.505 25.024C224.812 25.024 224.231 25.2747 223.761 25.776C223.292 26.2667 223.057 26.9707 223.057 27.888V32H221.713ZM234.486 32.192C233.739 32.192 233.067 32.0213 232.47 31.68C231.872 31.3387 231.398 30.8587 231.046 30.24C230.704 29.6107 230.534 28.8747 230.534 28.032C230.534 27.1893 230.71 26.4587 231.062 25.84C231.414 25.2107 231.888 24.7253 232.486 24.384C233.094 24.0427 233.771 23.872 234.518 23.872C235.264 23.872 235.936 24.0427 236.534 24.384C237.131 24.7253 237.6 25.2107 237.942 25.84C238.294 26.4587 238.47 27.1893 238.47 28.032C238.47 28.8747 238.294 29.6107 237.942 30.24C237.59 30.8587 237.11 31.3387 236.502 31.68C235.904 32.0213 235.232 32.192 234.486 32.192ZM234.486 31.04C234.944 31.04 235.371 30.928 235.766 30.704C236.16 30.48 236.48 30.144 236.726 29.696C236.971 29.248 237.094 28.6933 237.094 28.032C237.094 27.3707 236.971 26.816 236.726 26.368C236.491 25.92 236.176 25.584 235.782 25.36C235.387 25.136 234.966 25.024 234.518 25.024C234.059 25.024 233.632 25.136 233.238 25.36C232.843 25.584 232.523 25.92 232.278 26.368C232.032 26.816 231.91 27.3707 231.91 28.032C231.91 28.6933 232.032 29.248 232.278 29.696C232.523 30.144 232.838 30.48 233.222 30.704C233.616 30.928 234.038 31.04 234.486 31.04ZM240.338 32V24.064H241.554L241.666 25.584C241.912 25.0613 242.285 24.6453 242.786 24.336C243.288 24.0267 243.906 23.872 244.642 23.872V25.28H244.274C243.805 25.28 243.373 25.3653 242.978 25.536C242.584 25.696 242.269 25.9733 242.034 26.368C241.8 26.7627 241.682 27.3067 241.682 28V32H240.338ZM246.151 32V24.064H247.367L247.447 25.488C247.703 24.9867 248.071 24.592 248.551 24.304C249.031 24.016 249.575 23.872 250.183 23.872C251.122 23.872 251.868 24.16 252.423 24.736C252.988 25.3013 253.271 26.176 253.271 27.36V32H251.927V27.504C251.927 25.8507 251.244 25.024 249.879 25.024C249.196 25.024 248.626 25.2747 248.167 25.776C247.719 26.2667 247.495 26.9707 247.495 27.888V32H246.151Z" fill="white"/>
<rect width="115" height="4" transform="matrix(-1 0 0 1 123 24)" fill="#519A5A"/>
<circle cx="8" cy="8" r="8" transform="matrix(-1 0 0 1 16 18)" fill="white" fill-opacity="0.5"/>
<circle cx="8" cy="26" r="3" fill="#F4C300"/>
</svg>
